<?xml version="1.0" encoding="UTF-8"?>
<svg id="Camada_2" data-name="Camada 2" xmlns="http://www.w3.org/2000/svg" viewBox="0 0 404.62 404.62">
  <defs>
    <style>
      .cls-1 {
        fill: #fff;
      }

      .cls-2 {
        fill: #1f6b7a;
      }
    </style>
  </defs>
  <g id="OBJECTS">
    <rect class="cls-2" width="404.62" height="404.62" rx="20" ry="20"/>
    <path class="cls-1" d="M129.25,328.96l10.01-9.74s-4.21-9.74,9.74-18.96,31.86-10.27,49.51-11.85c17.64-1.58,52.41-10.53,62.94-6.58l-25.81-10.27,23.96,4.48s18.7-4.21,32.65-17.91l-26.07-3.95,31.07-1.05,8.69-11.06-12.64-.79,14.75-2.63s19.22-18.43,23.7-40.55c4.48-22.12,1.32-51.35-13.69-68.21,0,0-7.37,31.86-16.68,38.36-9.3,6.5-16.68,10.01-16.68,10.01,0,0-4.21,9.66-12.64,15.45,0,0,9.83-15.8,7.37-26.33,0,0-13.17,24.58-35.99,32.13-22.82,7.55-41.08,12.46-41.08,12.46l-10.36,24.93,2.28-20.72s-21.24,9.83-35.46,31.95c-14.22,22.12-12.11,42.66-12.11,42.66,0,0,18.43-24.05,54.95-41.78,36.52-17.73,93.05-40.73,106.21-60.22,0,0-8.25,12.64-28.44,24.75-20.19,12.11-63.9,31.25-80.58,39.33-16.68,8.08-48.45,33.88-58.81,51.26-10.36,17.38-10.8,24.84-10.8,24.84Z"/>
    <g>
      <path class="cls-1" d="M192.85,203.65s-11.46,3.96-24.37,15.88c-1.28-.93-2.69-1.66-4.22-2.2l-36.48-13.12,36.48-13.1c4.88-1.76,8.74-5.61,10.49-10.49l13.1-36.48,13.12,36.48c1.76,4.88,5.59,8.74,10.48,10.49l10.14,3.63-28.74,8.91Z"/>
      <path class="cls-1" d="M138.72,131.83l8.8,24.49,8.8-24.49c1.18-3.28,3.76-5.86,7.04-7.04l24.49-8.8-24.49-8.8c-3.28-1.18-5.86-3.76-7.04-7.04l-8.8-24.49-8.8,24.49c-1.18,3.28-3.76,5.86-7.04,7.04l-24.49,8.8,24.49,8.8c3.28,1.18,5.86,3.76,7.04,7.04Z"/>
      <path class="cls-1" d="M90.29,182.85c2.58.93,4.62,2.96,5.55,5.55l6.94,19.3,6.94-19.3c.93-2.58,2.96-4.62,5.55-5.55l19.3-6.94-19.3-6.94c-2.58-.93-4.62-2.96-5.55-5.55l-6.94-19.3-6.94,19.3c-.93,2.58-2.96,4.62-5.55,5.55l-19.3,6.94,19.3,6.94Z"/>
    </g>
  </g>
</svg>